<?xml version="1.0" encoding="utf-8"?>
<!-- Generator: Adobe Illustrator 17.1.0, SVG Export Plug-In . SVG Version: 6.00 Build 0)  -->
<!DOCTYPE svg PUBLIC "-//W3C//DTD SVG 1.1//EN" "http://www.w3.org/Graphics/SVG/1.1/DTD/svg11.dtd">
<svg version="1.1" id="Calque_1" xmlns="http://www.w3.org/2000/svg" xmlns:xlink="http://www.w3.org/1999/xlink" x="0px" y="0px"
	 viewBox="0 0 400 400" enable-background="new 0 0 400 400" xml:space="preserve">
<g>
	<circle fill="#00275E" cx="358.1" cy="98.5" r="36.6"/>
</g>
<path fill="none" stroke="#00275E" stroke-width="19" stroke-miterlimit="10" d="M301,357.2c-50.9,32.3-116.4,39.5-175.9,13.6
	C30.1,329.4-13.4,218.7,28.1,123.6S180.3-14.9,275.4,26.5c63.3,27.6,103.7,86,111.4,149.9"/>
<g>
	<g>
		<path fill="#00275E" d="M375.7,380.4c0.4,0.9,0.5,1.8,0.3,2.8s-0.7,1.8-1.6,2.8c-0.8,0.9-2.1,1.9-3.9,3c-1.7,1-4,2.2-6.8,3.4
			c-2.9,1.3-5.3,2.2-7.2,2.8c-1.9,0.6-3.5,0.9-4.9,0.9c-1.4,0-2.4-0.2-3.1-0.7c-0.7-0.5-1.3-1.2-1.7-2.2l-35.4-79.7
			c-2.6,6.8-5.4,12.8-8.2,18c-2.8,5.2-5.8,9.7-9.1,13.5s-6.8,7.2-10.6,9.9c-3.8,2.7-8,5.1-12.5,7.1c-11.3,5-21.9,7.1-31.8,6.2
			c-9.9-0.9-19.1-4-27.4-9.3c-8.4-5.3-16-12.6-22.8-21.8c-6.8-9.2-12.7-19.4-17.8-30.7c-5.9-13.4-9.8-26.1-11.7-38.1
			s-1.7-23.1,0.6-33.3s6.8-19.1,13.3-26.9c6.5-7.8,15.3-14.1,26.2-19c4.6-2,9.1-3.5,13.6-4.3c4.5-0.8,9.2-1,14.1-0.7
			c4.9,0.4,10.2,1.3,15.8,2.9c5.6,1.6,11.9,3.7,18.8,6.2l-8.4-18.8c-0.5-1-0.6-2-0.4-2.8c0.2-0.8,0.7-1.7,1.5-2.6
			c0.8-0.9,2-1.8,3.6-2.7c1.5-0.9,3.5-1.9,5.9-2.9c2.3-1,4.3-1.8,6-2.3c1.7-0.5,3.1-0.8,4.3-0.8c1.2,0,2.1,0.3,2.8,0.7
			c0.7,0.5,1.3,1.2,1.7,2.2L375.7,380.4z M271.1,222c-12-6.1-22.7-10.1-32.1-11.9c-9.4-1.8-18.1-1-25.9,2.5
			c-7.3,3.2-12.7,7.7-16.2,13.4c-3.5,5.7-5.6,12.1-6.3,19.1c-0.7,7.1-0.1,14.5,1.6,22.3c1.7,7.8,4.2,15.4,7.5,22.7
			c3.5,8,7.6,15.4,12.1,22.4c4.5,7,9.6,12.6,15.1,17.1c5.6,4.4,11.6,7.3,18.1,8.6c6.5,1.3,13.5,0.3,21-3c3.8-1.7,7.2-3.8,10.3-6.4
			c3.1-2.6,5.9-5.9,8.5-10c2.6-4.1,5.1-8.9,7.4-14.6c2.3-5.7,4.5-12.3,6.5-19.9L271.1,222z"/>
	</g>
</g>
<polygon fill="#FFFFFF" points="388,177.8 388.7,164.3 397.1,176.6 "/>
<polygon fill="#FFFFFF" points="379.4,179.9 380.1,166.5 388.5,178.7 "/>
<polygon fill="#FFFFFF" points="300.8,354.3 279.6,368.7 306.7,365.5 "/>
<polygon fill="#FFFFFF" points="298.7,351.1 277.5,362.3 304.6,359.8 "/>
</svg>
