<?xml version="1.0" encoding="utf-8"?>
<!-- Generator: Adobe Illustrator 17.1.0, SVG Export Plug-In . SVG Version: 6.00 Build 0)  -->
<!DOCTYPE svg PUBLIC "-//W3C//DTD SVG 1.1//EN" "http://www.w3.org/Graphics/SVG/1.1/DTD/svg11.dtd">
<svg version="1.1" xmlns="http://www.w3.org/2000/svg" xmlns:xlink="http://www.w3.org/1999/xlink" x="0px" y="0px"
	 viewBox="0 0 30 30" enable-background="new 0 0 30 30" xml:space="preserve">
<g id="bleu_trenqr">
	<circle fill="#00275E" cx="7.4" cy="15.4" r="3.1"/>
	<circle fill="#00275E" fill-opacity="0.6" cx="22.9" cy="15.4" r="3.1"/>
	<circle fill="#00275E" fill-opacity="0.8" cx="15.1" cy="15.4" r="3.1"/>
	<path fill="none" stroke="#A8A8A8" stroke-miterlimit="10" d="M23.8,23h-8.6L10,28.3l0.1-5.3H6.7c-2.4,0-4.3-1.7-4.3-3.8v-7.6
		c0-2.1,1.9-3.8,4.3-3.8h17.1c2.4,0,4.3,1.7,4.3,3.8v7.6C28.1,21.3,26.2,23,23.8,23z"/>
</g>
<g id="bleu_clair" display="none">
	<path display="inline" fill="none" stroke="#A8A8A8" stroke-miterlimit="10" d="M23.8,22h-8.6L10,27.3l0.1-5.3H6.7
		c-2.4,0-4.3-1.7-4.3-3.8v-7.6c0-2.1,1.9-3.8,4.3-3.8h17.1c2.4,0,4.3,1.7,4.3,3.8v7.6C28.1,20.3,26.2,22,23.8,22z"/>
	<circle display="inline" fill="#02BAFF" cx="7.4" cy="14.4" r="3.1"/>
	<circle display="inline" fill="#02BAFF" fill-opacity="0.6" cx="22.9" cy="14.4" r="3.1"/>
	<circle display="inline" fill="#02BAFF" fill-opacity="0.8" cx="15.1" cy="14.4" r="3.1"/>
</g>
<g id="noir" display="none">
	<circle display="inline" cx="7.4" cy="14.4" r="3.1"/>
	<circle display="inline" fill-opacity="0.6" cx="22.9" cy="14.4" r="3.1"/>
	<circle display="inline" fill-opacity="0.8" cx="15.1" cy="14.4" r="3.1"/>
	<path display="inline" fill="none" stroke="#000000" stroke-miterlimit="10" d="M23.8,22h-8.6L10,27.3l0.1-5.3H6.7
		c-2.4,0-4.3-1.7-4.3-3.8v-7.6c0-2.1,1.9-3.8,4.3-3.8h17.1c2.4,0,4.3,1.7,4.3,3.8v7.6C28.1,20.3,26.2,22,23.8,22z"/>
</g>
<g id="blanc" display="none">
	<rect x="-15" y="-9" display="inline" width="72" height="51"/>
	<circle display="inline" fill="#FFFFFF" cx="7.4" cy="14.4" r="3.1"/>
	<circle display="inline" fill="#FFFFFF" fill-opacity="0.6" cx="22.9" cy="14.4" r="3.1"/>
	<circle display="inline" fill="#FFFFFF" fill-opacity="0.8" cx="15.1" cy="14.4" r="3.1"/>
	<path display="inline" fill="none" stroke="#FFFFFF" stroke-miterlimit="10" d="M23.8,22h-8.6L10,27.3l0.1-5.3H6.7
		c-2.4,0-4.3-1.7-4.3-3.8v-7.6c0-2.1,1.9-3.8,4.3-3.8h17.1c2.4,0,4.3,1.7,4.3,3.8v7.6C28.1,20.3,26.2,22,23.8,22z"/>
</g>
</svg>
