<?xml version="1.0" encoding="utf-8"?>
<!-- Generator: Adobe Illustrator 17.1.0, SVG Export Plug-In . SVG Version: 6.00 Build 0)  -->
<!DOCTYPE svg PUBLIC "-//W3C//DTD SVG 1.1//EN" "http://www.w3.org/Graphics/SVG/1.1/DTD/svg11.dtd">
<svg version="1.1" xmlns="http://www.w3.org/2000/svg" xmlns:xlink="http://www.w3.org/1999/xlink" x="0px" y="0px"
	 viewBox="0 0 50 50" enable-background="new 0 0 50 50" xml:space="preserve">
<g id="bleu_x2F_vert">
	<path fill="#0C8993" d="M36.6,29.6c2.2-1.1,3.8-3.4,3.8-6c0-3.7-3-6.7-6.7-6.7c-3.7,0-6.7,3-6.7,6.7c0,2.6,1.4,4.8,3.5,5.9
		c-5,1.2-8.7,5.5-8.7,10.5h23.2C44.9,35,41.4,30.9,36.6,29.6z"/>
	<path fill="#0C8993" d="M18.9,29.6c2.2-1.1,3.8-3.4,3.8-6c0-3.7-3-6.7-6.7-6.7c-3.7,0-6.7,3-6.7,6.7c0,2.6,1.4,4.8,3.5,5.9
		C7.8,30.7,4.1,35,4.1,40h23.2C27.2,35,23.7,30.9,18.9,29.6z"/>
	<path fill="#0EB0C6" stroke="#FFFFFF" stroke-miterlimit="10" d="M28.7,29.4c2.7-1.4,4.6-4.3,4.6-7.6c0-4.6-3.7-8.4-8.3-8.4
		c-4.6,0-8.3,3.7-8.3,8.2c0,3.2,1.8,6.2,4.4,7.6c-6.2,1.5-10.8,7.2-10.8,13.2h28.6C38.9,36.5,34.6,31,28.7,29.4z"/>
</g>
<g id="bleu_trenqr" display="none">
	<path display="inline" fill="#00275E" fill-opacity="0.8" d="M36.6,29.6c2.2-1.1,3.8-3.4,3.8-6c0-3.7-3-6.7-6.7-6.7
		c-3.7,0-6.7,3-6.7,6.7c0,2.6,1.4,4.8,3.5,5.9c-5,1.2-8.7,5.5-8.7,10.5h23.2C44.9,35,41.4,30.9,36.6,29.6z"/>
	<path display="inline" fill="#00275E" fill-opacity="0.8" d="M18.9,29.6c2.2-1.1,3.8-3.4,3.8-6c0-3.7-3-6.7-6.7-6.7
		c-3.7,0-6.7,3-6.7,6.7c0,2.6,1.4,4.8,3.5,5.9C7.8,30.7,4.1,35,4.1,40h23.2C27.2,35,23.7,30.9,18.9,29.6z"/>
	<path display="inline" fill="#00275E" stroke="#FFFFFF" stroke-miterlimit="10" d="M28.7,29.4c2.7-1.4,4.6-4.3,4.6-7.6
		c0-4.6-3.7-8.4-8.3-8.4c-4.6,0-8.3,3.7-8.3,8.2c0,3.2,1.8,6.2,4.4,7.6c-6.2,1.5-10.8,7.2-10.8,13.2h28.6
		C38.9,36.5,34.6,31,28.7,29.4z"/>
</g>
<g id="Noir" display="none">
	<path display="inline" fill-opacity="0.8" d="M36.6,29.6c2.2-1.1,3.8-3.4,3.8-6c0-3.7-3-6.7-6.7-6.7c-3.7,0-6.7,3-6.7,6.7
		c0,2.6,1.4,4.8,3.5,5.9c-5,1.2-8.7,5.5-8.7,10.5h23.2C44.9,35,41.4,30.9,36.6,29.6z"/>
	<path display="inline" fill-opacity="0.8" d="M18.9,29.6c2.2-1.1,3.8-3.4,3.8-6c0-3.7-3-6.7-6.7-6.7c-3.7,0-6.7,3-6.7,6.7
		c0,2.6,1.4,4.8,3.5,5.9C7.8,30.7,4.1,35,4.1,40h23.2C27.2,35,23.7,30.9,18.9,29.6z"/>
	<path display="inline" stroke="#FFFFFF" stroke-miterlimit="10" d="M28.7,29.4c2.7-1.4,4.6-4.3,4.6-7.6c0-4.6-3.7-8.4-8.3-8.4
		c-4.6,0-8.3,3.7-8.3,8.2c0,3.2,1.8,6.2,4.4,7.6c-6.2,1.5-10.8,7.2-10.8,13.2h28.6C38.9,36.5,34.6,31,28.7,29.4z"/>
</g>
<g id="fond_va_avec_la_v_blanche" display="none">
	<rect x="-12" y="-8" display="inline" fill="#00275E" width="96" height="73"/>
</g>
<g id="blanc" display="none">
	<path display="inline" fill="#FFFFFF" fill-opacity="0.8" d="M36.6,29.6c2.2-1.1,3.8-3.4,3.8-6c0-3.7-3-6.7-6.7-6.7
		c-3.7,0-6.7,3-6.7,6.7c0,2.6,1.4,4.8,3.5,5.9c-5,1.2-8.7,5.5-8.7,10.5h23.2C44.9,35,41.4,30.9,36.6,29.6z"/>
	<path display="inline" fill="#FFFFFF" fill-opacity="0.8" d="M18.9,29.6c2.2-1.1,3.8-3.4,3.8-6c0-3.7-3-6.7-6.7-6.7
		c-3.7,0-6.7,3-6.7,6.7c0,2.6,1.4,4.8,3.5,5.9C7.8,30.7,4.1,35,4.1,40h23.2C27.2,35,23.7,30.9,18.9,29.6z"/>
	<path display="inline" fill="#FFFFFF" stroke="#00275E" stroke-miterlimit="10" d="M28.7,29.4c2.7-1.4,4.6-4.3,4.6-7.6
		c0-4.6-3.7-8.4-8.3-8.4c-4.6,0-8.3,3.7-8.3,8.2c0,3.2,1.8,6.2,4.4,7.6c-6.2,1.5-10.8,7.2-10.8,13.2h28.6
		C38.9,36.5,34.6,31,28.7,29.4z"/>
</g>
</svg>
