<?xml version="1.0" encoding="utf-8"?>
<!-- Generator: Adobe Illustrator 17.1.0, SVG Export Plug-In . SVG Version: 6.00 Build 0)  -->
<!DOCTYPE svg PUBLIC "-//W3C//DTD SVG 1.1//EN" "http://www.w3.org/Graphics/SVG/1.1/DTD/svg11.dtd">
<svg version="1.1" id="Calque_1" xmlns="http://www.w3.org/2000/svg" xmlns:xlink="http://www.w3.org/1999/xlink" x="0px" y="0px"
	 viewBox="0 0 190 70" enable-background="new 0 0 190 70" xml:space="preserve">
<g>
	<path d="M56.8,14.8c-1.9,0-3.4-1.7-3-3.6c0.1-0.3,0.1-0.6,0.1-0.8c0-1.3-0.7-2.3-2-2.8c-1.3-0.5-2.8-0.8-4.3-0.8
		c-5.1,0-10.5,1.5-16.4,4.4c-5.9,2.9-10.9,6.3-15.1,10.3c-5.7,5.3-8.6,10.4-8.6,15.2c0,2.1,0.5,3.9,1.6,5.5c1,1.6,2.4,2.8,4.2,3.6
		c3.3,1.6,6.9,2.4,10.9,2.4c1.8,0,4.1-0.2,6.7-0.6c4.6-0.8,8.5-1.9,11.8-3.2c3.3-1.3,6.6-3.4,9.8-6c0.2-0.1,0.3-0.1,0.3-0.1
		c0.2,0,0.3,0.1,0.3,0.3c0,0.2-0.1,0.4-0.3,0.7c-3.2,3.5-7.8,6.4-13.6,8.6C33.5,50,28.1,51.1,23,51.1c-6.5,0-11.4-1.9-14.6-5.7
		c-1.8-2.1-2.7-4.7-2.7-7.7c0-5.8,3.1-11.5,9.4-17.2c4.7-4.2,10.4-7.9,17-11C38.8,6.5,45,4.9,50.7,4.9c3.5,0,6.2,0.8,8.2,2.5
		c1.1,1,1.7,2.3,1.7,3.8c0,0,0,0,0,0C60.6,13.3,58.9,14.8,56.8,14.8L56.8,14.8z"/>
	<path d="M62.4,47c-2.9,1.5-5.4,2.2-7.6,2.2c-1.8,0-3.1-0.6-3.7-1.8c-0.3-0.6-0.5-1.3-0.5-2.1c0-1.8,0.4-3.5,1.2-5.2
		c-0.6,0.6-1.1,1-1.6,1.4c-0.4,0.4-0.7,0.3-0.7-0.1c0-0.3,0.4-0.8,1.1-1.4s1.9-1.7,3.5-3.3c1.6-1.5,2.8-2.7,3.7-3.5
		c2.6-2.2,5.4-3.3,8.4-3.3c1.1,0,2.2,0.3,3.3,0.8c1.6,0.8,2.5,2.2,2.5,4.3c0,2.5-1.3,5.1-3.8,7.7c-1,1.1-2.4,2.3-4.2,3.4
		c3.6-0.6,7.3-2.7,11.3-6.4c0.2-0.2,0.4-0.2,0.6-0.2c0.2,0,0.3,0.1,0.3,0.3c0,0.2-0.1,0.3-0.3,0.5c-4.8,4.5-9.2,6.8-13.3,6.8
		C62.6,47,62.5,47,62.4,47z M68.7,40.2c1.1-1.6,1.6-3,1.6-4.2c0-1.1-0.5-2-1.5-2.6c-0.6-0.5-1.2-0.7-1.9-0.7c-2.6,0-5.1,1-7.3,3.1
		c-2.2,2.1-3.7,4.3-4.5,6.6c-0.3,0.8-0.5,1.7-0.5,2.6c0,0.9,0.3,1.5,1,1.9c0.7,0.4,1.4,0.6,2.2,0.6c0.8,0,2-0.4,3.6-1.2
		c-0.1,0-0.2,0-0.4-0.1c-0.5-0.3-0.8-0.6-0.8-1c0-1.5,0.8-3.1,2.5-4.6c1.2-1.1,2.4-1.6,3.7-1.6C67.8,38.8,68.5,39.3,68.7,40.2z"/>
	<path d="M94.1,32.7c0-0.8-0.4-1.2-1.3-1.2c-0.7,0-1.9,0.3-3.4,1c-1.5,0.7-3.3,2.1-5.2,4.3c-2.3,2.7-3.4,5.2-3.4,7.3
		c0,1.6,0.6,2.7,1.8,3.2c0.4,0.2,0.8,0.3,1.4,0.3c1.8,0,3.9-0.8,6.3-2.3c2.4-1.5,5.5-4,9.3-7.5c0.6-0.6,0.9-0.6,0.9,0
		c0,0.3-0.1,0.5-0.4,0.7c-5.3,4.9-9.2,7.9-11.7,9c-2.5,1.1-4.5,1.7-5.9,1.7c-5,0-7.5-1.8-7.5-5.5c0-3.7,1.7-6.9,5-9.5s6.8-4,10.4-4
		c2.3,0,3.8,0.5,4.5,1.6c0.5,0.5,0.7,1.1,0.7,1.7s-0.2,1.2-0.5,1.8c-0.3,0.6-0.8,0.9-1.5,0.9c-0.7,0-0.8-0.4-0.3-1.3
		C93.8,34.1,94.1,33.3,94.1,32.7z"/>
	<path d="M100.9,42.2c-1.2,2.9-1.8,5.3-1.8,7.2c0,2,0.3,3.2,0.8,3.9c0.1,0.2,0.2,0.3,0.1,0.4c-0.1,0.1-0.2,0.1-0.2,0.1
		c0,0-0.1,0-0.2-0.1c-1.4-1.2-2.2-2.4-2.3-3.8c-0.1-0.5-0.1-1-0.1-1.6c0-2.5,0.7-5.6,2.2-9.3c-2.2,2.2-3.3,3-3.4,2.5
		c0-0.4,0.3-0.8,0.9-1.3c0.6-0.5,1.8-2,3.8-4.4c4.3-9.6,10-17.7,17-24.1c3.6-3.4,6.9-5.1,9.9-5.1c2.4,0,3.8,1,4.2,3
		c0.1,0.3,0.1,0.6,0.1,1c0,3.7-3.7,8-11,13c-2.6,1.7-4.9,3.1-7,4c-0.5,0.2-0.8,0.2-0.9-0.1c-0.1-0.3,0.1-0.5,0.7-0.7
		c2-0.9,4.3-2.3,6.8-4.1c2.6-1.8,4.9-3.8,6.9-5.9c2-2.1,3.1-3.8,3.1-5c0-0.7-0.4-1.1-1.2-1.1s-2,0.5-3.6,1.4
		c-4.3,2.6-9.1,7.3-14.2,13.9c-3.2,4.1-5.8,7.9-7.9,11.3c3-4,6.2-6.7,9.4-8c1.2-0.4,2.2-0.6,3.1-0.6c0.8,0,1.5,0.1,2.1,0.4
		c1.2,0.5,1.8,1.4,1.8,2.6c0,2.2-1.3,4.2-3.8,6.1c-1.5,1-3.2,1.8-5,2.2s-3.3,0.7-4.3,0.7s-1.8-0.1-2.4-0.4c1.4,1.8,3.2,3.3,5.4,4.6
		c2.2,1.3,4,1.9,5.4,1.9c0.9,0,1.6-0.2,2.1-0.6c0.5-0.4,0.8-0.8,0.8-1.1c0-0.3,0.1-0.4,0.2-0.4s0.2,0,0.2,0.1c0,1.5-1.1,2.6-3.4,3.1
		c-1,0.2-2.2,0.3-3.6,0.3c-1.5,0-3.1-0.5-4.9-1.4C103.6,45.5,101.8,44,100.9,42.2z M115.3,33.5c0-1.5-0.7-2.3-2.1-2.3
		c-1.6,0-3.5,0.9-5.5,2.7c-2,1.8-3.5,3.3-4.5,4.5c0.1,0.2,0.3,0.5,0.5,1c0.5,0.3,1.1,0.5,1.8,0.5c0.7,0,1.8-0.2,3.3-0.6
		c1.5-0.4,3-1.1,4.4-2.2C114.5,36,115.3,34.8,115.3,33.5z"/>
	<path d="M143.8,33.1c0,3-1.5,6.2-4.4,9.6c-2.2,2.6-4.6,4.5-7.1,5.7c-1.4,0.7-2.6,1-3.6,1c-1,0-1.7-0.2-2.3-0.6
		c-1-0.7-1.6-1.7-1.6-3.1s0.4-2.9,1.1-4.6c-9.6,13.7-14.4,21.9-14.4,24.6c0,0.3,0.1,0.5,0.2,0.7c0.1,0.2,0.1,0.3-0.1,0.4l-0.2-0.1
		c-1.4-1.2-2.1-2.6-2.1-4.3c0-3.8,3.9-11.5,11.6-23.1c-2.1,2.1-3.1,2.8-3.1,2.2c0-0.3,0.2-0.7,0.7-1.2c2.1-1.8,4.4-4.3,6.9-7.5
		c2.5-3.2,4.1-5.1,4.8-5.8c0.7-0.7,1.6-1.1,2.6-1.1s2.1,0.5,3.1,1.6c-0.9,1-2.5,3.2-4.9,6.4c2.1-2,4.2-3.3,6.3-4.1
		c1-0.4,2-0.6,2.8-0.6s1.6,0.3,2.5,0.8C143.4,30.7,143.8,31.7,143.8,33.1z M125.7,45.2c0,2,0.8,2.9,2.3,2.9c0.9,0,2.2-0.4,3.9-1.3
		c1.8-0.9,3.5-2.3,5.1-4.3c1.7-2,2.8-3.7,3.5-5.3c0.7-1.6,1-2.9,1-3.9c0-1.8-0.7-2.7-2.1-2.7c-0.9,0-2.3,0.5-4.2,1.4
		c-1.9,0.9-3.7,2.3-5.3,4.3C127.1,39.7,125.7,42.6,125.7,45.2z"/>
	<path d="M155.6,31.8c-1.8,1.8-3.3,4.1-4.5,6.9c-1.2,2.8-1.8,4.8-1.8,5.9c0,1.1,0.4,1.7,1.3,1.7c0.9,0,2.4-0.7,4.4-2
		c2.1-1.3,4.4-3.1,7.1-5.5c0.6-0.5,0.8-0.5,0.8,0.2c0,0.1,0,0.2-0.1,0.3c-2.1,1.8-3.8,3.3-5.3,4.5c-1.4,1.2-3.1,2.3-5.1,3.3
		c-2,1.1-3.6,1.6-4.8,1.6c-1.6,0-2.7-0.3-3.5-1c-0.8-0.7-1.1-1.5-1.1-2.3c0-1.6,0.3-2.8,0.8-3.7c0.6-0.9,1.5-2.2,2.9-3.8
		c-0.5,0.4-1.2,1-2.2,2c-1,0.9-1.7,1.5-2.1,1.8c-0.4,0.3-0.6,0.2-0.6-0.3c0-0.3,0.3-0.7,1-1.3c0.7-0.6,2.2-2,4.5-4.3
		c2.3-2.3,3.9-3.7,4.7-4.1c0.8-0.4,1.5-0.7,2.1-0.7s0.9,0.1,1.2,0.2C155.7,31.4,155.7,31.6,155.6,31.8z M156.5,28.3
		c-0.5-0.4-0.7-1-0.6-1.7c0.1-0.7,0.5-1.5,1.2-2.3c0.7-0.8,1.6-1.2,2.8-1.2c0.3,0,0.7,0.2,1.1,0.5c0.4,0.3,0.5,0.9,0.5,1.6
		c-0.1,0.8-0.4,1.5-1,2.1c-0.6,0.7-1.3,1.1-2,1.3C157.6,28.8,156.9,28.7,156.5,28.3z"/>
	<path d="M172.6,25.9c1-1.4,1.7-2.6,2.3-3.4s1-1.5,1.4-1.9c0.3-0.4,1.1-0.7,2.3-1c1.2-0.3,2.4-0.4,3.5-0.4c1.1,0,1.7,0.1,1.7,0.4
		c0,0.2-0.9,1.2-2.8,3c-1.9,1.8-4,4.1-6.5,7.1c2.9,0.5,4.9,1.4,5.8,2.8c0.3,0.6,0.4,1,0.2,1.2c-0.2,0.2-0.5,0.1-0.8-0.2
		c-0.9-0.9-2.4-1.4-4.4-1.4c-0.9,0-1.8,0.1-2.9,0.3c-3.5,4.5-5.7,8.2-6.6,11c-0.3,0.8-0.5,1.5-0.5,2.1c0,1.5,0.6,2.3,1.9,2.3
		c1.3,0,3.2-0.9,5.7-2.8c3.2-2.4,5.9-4.7,8.3-7.1c0.4-0.5,0.7-0.6,0.8-0.3c0.1,0.3,0,0.5-0.3,0.8c-3.7,3.9-6.9,6.8-9.4,8.6
		c-2.5,1.8-4.9,2.8-7,2.8c-2.9,0-4.4-1.5-4.4-4.6c0-1.5,0.4-3.2,1.2-5.3l-1.2,1.1c-0.3,0.3-0.6,0.4-0.7,0.3
		c-0.2-0.2-0.2-0.3-0.2-0.4s0.2-0.3,0.5-0.6c3.2-2.8,5.3-4.9,6.5-6.3c-0.8,0.3-1.4,0.3-1.7,0.1c-0.3-0.3-0.5-0.6-0.6-1
		c-0.1-0.4,0.1-1,0.7-1.6c0.5-0.6,1.3-1.1,2.4-1.4c1.1-0.3,1.9-0.4,2.4-0.5C170.9,28.5,171.7,27.3,172.6,25.9z"/>
</g>
</svg>
