<?xml version="1.0" encoding="UTF-8" standalone="no"?>
<!-- Generator: Adobe Illustrator 17.1.0, SVG Export Plug-In . SVG Version: 6.00 Build 0)  -->

<svg
   xmlns:dc="http://purl.org/dc/elements/1.1/"
   xmlns:cc="http://creativecommons.org/ns#"
   xmlns:rdf="http://www.w3.org/1999/02/22-rdf-syntax-ns#"
   xmlns:svg="http://www.w3.org/2000/svg"
   xmlns="http://www.w3.org/2000/svg"
   xmlns:sodipodi="http://sodipodi.sourceforge.net/DTD/sodipodi-0.dtd"
   xmlns:inkscape="http://www.inkscape.org/namespaces/inkscape"
   version="1.1"
   x="0px"
   y="0px"
   viewBox="0 0 19 19"
   enable-background="new 0 0 19 19"
   xml:space="preserve"
   id="svg2"
   inkscape:version="0.91 r13725"
   sodipodi:docname="connected_t_noir_seul-01 - Copie.svg"><metadata
     id="metadata38"><rdf:RDF><cc:Work
         rdf:about=""><dc:format>image/svg+xml</dc:format><dc:type
           rdf:resource="http://purl.org/dc/dcmitype/StillImage" /></cc:Work></rdf:RDF></metadata><defs
     id="defs36" /><sodipodi:namedview
     pagecolor="#ffffff"
     bordercolor="#666666"
     borderopacity="1"
     objecttolerance="10"
     gridtolerance="10"
     guidetolerance="10"
     inkscape:pageopacity="0"
     inkscape:pageshadow="2"
     inkscape:window-width="1920"
     inkscape:window-height="1017"
     id="namedview34"
     showgrid="true"
     inkscape:zoom="22.627417"
     inkscape:cx="8.5141335"
     inkscape:cy="11.357174"
     inkscape:window-x="-8"
     inkscape:window-y="-8"
     inkscape:window-maximized="1"
     inkscape:current-layer="svg2"><inkscape:grid
       type="xygrid"
       id="grid4188" /></sodipodi:namedview><g
     id="noir"><g
       id="g5"><g
         id="g7"><path
           d="m 11.244796,7.130151 c 0.1,0.03125 0.07533,0.00947 0.175331,0.1094672 0,0 0.09521,0.091954 0.129555,0.2201276 0.03962,0.1201271 0.140254,0.4496822 0.140254,0.6496822 C 11.689936,8.209428 11.6,8.4 11.5,8.5 11.4,8.6 11.370295,8.5723477 11.170312,8.575 L 9.9921875,8.590625 C 9.3988573,8.5984941 9.3,8.4496442 9.3,9.1 l 0,1.8 0,3 c 0,0.2 -0.1,0.3 -0.2,0.4 C 9,14.4 8.9,14.4 8.7,14.4 8.6,14.4 8.1,14.4 8,14.3 7.9,14.2 7.8,14.1 7.8,13.9 L 7.8,9 C 7.8,8.6 7.7,8.6 7.2,8.6 l -1.1,0 C 5.9,8.6 5.7,8.5 5.6,8.4 5.5,8.3 5.5,8.2 5.5,8 5.5,7.9 5.6,7.4 5.7,7.3 5.8,7.2 6,7.1 6.2,7.1 l 2.2,0 1.5,0 0.9,0 0.3,0 z"
           id="path9"
           style="fill:#a982d4;fill-opacity:1;stroke:none;stroke-opacity:1"
           inkscape:connector-curvature="0"
           sodipodi:nodetypes="cccssssscssssssssssssccccc" /></g></g><path
       stroke-miterlimit="10"
       d="m 14.3,8.5 c 0.9,2.4 0.3,5.3 -1.8,7.1 -0.740404,0.630715 -1.571047,1.065913 -2.434189,1.309719 C 7.7813721,17.554989 5.2692852,16.859596 3.6,14.9 1.3,12.2 1.6,8.3 4.3,6 6,4.4 8.4,4.1 10.4,4.8"
       id="path11"
       style="fill:none;stroke:#a982d4;stroke-width:0.75;stroke-miterlimit:10;stroke-opacity:1"
       inkscape:connector-curvature="0"
       sodipodi:nodetypes="ccsscc" /><path
       stroke-miterlimit="10"
       d="M14.6,7.5c0.1-1.7-1.6-3-3.3-3.1"
       id="path13"
       style="stroke:#a982d4;stroke-opacity:1"
       stroke-width="0.75"
       stroke="#000000"
       fill="none" /><path
       stroke-miterlimit="10"
       d="M16.4,7.5c0-2.7-2.3-4.8-5-4.8"
       id="path15"
       style="stroke:#a982d4;stroke-opacity:1"
       stroke-width="0.75"
       stroke="#000000"
       fill="none" /><path
       stroke-miterlimit="10"
       d="M18.2,7.4c0-4.1-2.8-6.5-6.9-6.5"
       id="path17"
       style="stroke:#a982d4;stroke-opacity:1"
       stroke-width="0.75"
       stroke="#000000"
       fill="none" /></g><g
     id="blanc"
     display="none"><g
       display="inline"
       id="g20"><g
         id="g22"><path
           fill="#FFFFFF"
           d="M11.1,7.2c0.1,0,0.2,0,0.3,0.1c0.1,0,0.2,0.1,0.2,0.2c0.1,0.1,0.1,0.5,0.1,0.7c0,0.1-0.1,0.2-0.2,0.3     c-0.1,0.1-0.2,0.2-0.4,0.2l-1.1,0c-0.4,0-0.7,0-0.7,0.4c0,0.8,0,1,0,1.8c0,1,0,2,0,3c0,0.2-0.1,0.3-0.2,0.4     c-0.1,0.1-0.2,0.1-0.4,0.1c-0.1,0-0.6,0-0.7-0.1c-0.1-0.1-0.2-0.2-0.2-0.4l0-4.9c0-0.4-0.1-0.4-0.6-0.4H6.1     c-0.2,0-0.4-0.1-0.5-0.2C5.5,8.3,5.5,8.2,5.5,8c0-0.1,0.1-0.6,0.2-0.7c0.1-0.1,0.3-0.2,0.5-0.2c0.9,0,1.6,0,2.2,0     c0.6,0,1.1,0,1.5,0c0.4,0,0.7,0,0.9,0H11.1z"
           id="path24" /></g></g><path
       display="inline"
       fill="none"
       stroke="#FFFFFF"
       stroke-width="0.75"
       stroke-miterlimit="10"
       d="M14.3,8.5   c0.9,2.4,0.3,5.3-1.8,7.1c-2.7,2.3-6.6,2-8.9-0.7s-2-6.6,0.7-8.9C6,4.4,8.4,4.1,10.4,4.8"
       id="path26" /><path
       display="inline"
       fill="none"
       stroke="#FFFFFF"
       stroke-width="0.75"
       stroke-miterlimit="10"
       d="M14.6,7.5   c0.1-1.7-1.6-3-3.3-3.1"
       id="path28" /><path
       display="inline"
       fill="none"
       stroke="#FFFFFF"
       stroke-width="0.75"
       stroke-miterlimit="10"
       d="M16.4,7.5c0-2.7-2.3-4.8-5-4.8   "
       id="path30" /><path
       display="inline"
       fill="none"
       stroke="#FFFFFF"
       stroke-width="0.75"
       stroke-miterlimit="10"
       d="M18.2,7.4   c0-4.1-2.8-6.5-6.9-6.5"
       id="path32" /></g></svg>