<?xml version="1.0" encoding="utf-8"?>
<!-- Generator: Adobe Illustrator 17.1.0, SVG Export Plug-In . SVG Version: 6.00 Build 0)  -->
<!DOCTYPE svg PUBLIC "-//W3C//DTD SVG 1.1//EN" "http://www.w3.org/Graphics/SVG/1.1/DTD/svg11.dtd">
<svg version="1.1" xmlns="http://www.w3.org/2000/svg" xmlns:xlink="http://www.w3.org/1999/xlink" x="0px" y="0px"
	 viewBox="0 0 50 22" enable-background="new 0 0 50 22" xml:space="preserve">
<g id="bleu_clair" display="none">
	<path display="inline" fill="#2E79D4" d="M14,12.9c1.9-1,3.3-3,3.3-5.3c0-3.2-2.6-5.9-5.9-5.9S5.5,4.4,5.5,7.7
		c0,2.2,1.2,4.2,3.1,5.2C4.2,13.9,1,17.6,1,22l18.1,0.1C19.3,17.3,17.6,14,14,12.9z"/>
	<circle display="inline" fill="#2E79D4" cx="39" cy="7.7" r="5.9"/>
	<path display="inline" fill="#2E79D4" d="M30.3,22c-0.1-6.5,2.8-9.5,8.3-9.5s10.1,4.2,10.1,9.5"/>
	<g display="inline">
		<g>
			<path fill="#2E79D4" d="M14.2,18.3c5.3-1.6,9.8-5.7,10.4-11.5c0.2-1.9-2.8-1.9-3,0c-0.4,4.3-4.3,7.4-8.2,8.6
				C11.5,15.9,12.3,18.8,14.2,18.3L14.2,18.3z"/>
		</g>
	</g>
	<g display="inline">
		<g>
			<path fill="#2E79D4" d="M35.5,15.6c-3.9-1.4-7.4-4.6-7.6-9c-0.1-1.9-3.1-1.9-3,0c0.3,5.7,4.7,10,9.8,11.9
				C36.5,19.1,37.3,16.2,35.5,15.6L35.5,15.6z"/>
		</g>
	</g>
</g>
<g id="noir" display="none">
	<circle display="inline" cx="11.4" cy="7.7" r="5.9"/>
	<path display="inline" d="M1,22c0-5.2,4.5-9.5,10.1-9.5s8.2,3.6,7.9,9.6"/>
	<circle display="inline" cx="39" cy="7.7" r="5.9"/>
	<path display="inline" d="M30.3,22c-0.1-6.5,2.8-9.5,8.3-9.5s10.1,4.2,10.1,9.5"/>
	<g display="inline">
		<g>
			<path d="M14.2,18.3c5.3-1.6,9.8-5.7,10.4-11.5c0.2-1.9-2.8-1.9-3,0c-0.4,4.3-4.3,7.4-8.2,8.6C11.5,15.9,12.3,18.8,14.2,18.3
				L14.2,18.3z"/>
		</g>
	</g>
	<g display="inline">
		<g>
			<path d="M35.5,15.6c-3.9-1.4-7.4-4.6-7.6-9c-0.1-1.9-3.1-1.9-3,0c0.3,5.7,4.7,10,9.8,11.9C36.5,19.1,37.3,16.2,35.5,15.6
				L35.5,15.6z"/>
		</g>
	</g>
</g>
<g id="blanc">
	<circle fill="#FFFFFF" cx="11.4" cy="7.7" r="5.9"/>
	<path fill="#FFFFFF" d="M1,22c0-5.2,4.5-9.5,10.1-9.5s8.2,3.6,7.9,9.6"/>
	<circle fill="#FFFFFF" cx="39" cy="7.7" r="5.9"/>
	<path fill="#FFFFFF" d="M30.3,22c-0.1-6.5,2.8-9.5,8.3-9.5s10.1,4.2,10.1,9.5"/>
	<g>
		<g>
			<path fill="#FFFFFF" d="M14.2,18.3c5.3-1.6,9.8-5.7,10.4-11.5c0.2-1.9-2.8-1.9-3,0c-0.4,4.3-4.3,7.4-8.2,8.6
				C11.5,15.9,12.3,18.8,14.2,18.3L14.2,18.3z"/>
		</g>
	</g>
	<g>
		<g>
			<path fill="#FFFFFF" d="M35.5,15.6c-3.9-1.4-7.4-4.6-7.6-9c-0.1-1.9-3.1-1.9-3,0c0.3,5.7,4.7,10,9.8,11.9
				C36.5,19.1,37.3,16.2,35.5,15.6L35.5,15.6z"/>
		</g>
	</g>
</g>
</svg>
